<svg width="95" height="40" viewBox="0 0 95 40" fill="none" xmlns="http://www.w3.org/2000/svg">
<path d="M11 12.4286L1 22.4286L11 32.4286" stroke="black" stroke-width="2" stroke-linecap="round" stroke-linejoin="round"/>
<path d="M31 12.4286L41 22.4286L31 32.4286" stroke="black" stroke-width="2" stroke-linecap="round" stroke-linejoin="round"/>
<path d="M24.5349 5.04265L15.9481 37.089C15.8314 37.5245 15.3838 37.783 14.9483 37.6663C14.5129 37.5496 14.2544 37.102 14.3711 36.6665L22.9579 4.62008C23.0746 4.1846 23.5222 3.92617 23.9577 4.04285C24.3932 4.15954 24.6516 4.60716 24.5349 5.04265Z" fill="black"/>
<path d="M22.9579 4.62008C23.0746 4.1846 23.5222 3.92617 23.9577 4.04285C24.3932 4.15954 24.6516 4.60716 24.5349 5.04265L23.4891 8.94578L21.9121 8.52321L22.9579 4.62008Z" fill="#D9D9D9"/>
<path d="M25.6948 7.02249L28.8488 7.86761" stroke="black" stroke-linecap="round"/>
<path d="M17.8096 4.9097L20.9637 5.75482" stroke="black" stroke-linecap="round"/>
<path d="M19.6457 1.21124L21.2833 4.0205" stroke="black" stroke-linecap="round"/>
<path d="M17.5865 8.89651L20.4093 7.28245" stroke="black" stroke-linecap="round"/>
<path d="M25.2756 8.58643L26.9133 11.3957" stroke="black" stroke-linecap="round"/>
<path d="M26.1497 5.32446L28.9725 3.7104" stroke="black" stroke-linecap="round"/>
<path d="M55.016 15.072C54.184 15.072 53.432 14.888 52.76 14.52C52.096 14.152 51.572 13.644 51.188 12.996C50.812 12.34 50.624 11.608 50.624 10.8C50.624 9.992 50.812 9.264 51.188 8.616C51.572 7.96 52.1 7.448 52.772 7.08C53.444 6.712 54.196 6.528 55.028 6.528C55.652 6.528 56.228 6.632 56.756 6.84C57.284 7.048 57.732 7.352 58.1 7.752L57.536 8.316C56.88 7.652 56.052 7.32 55.052 7.32C54.388 7.32 53.784 7.472 53.24 7.776C52.696 8.08 52.268 8.496 51.956 9.024C51.652 9.552 51.5 10.144 51.5 10.8C51.5 11.456 51.652 12.048 51.956 12.576C52.268 13.104 52.696 13.52 53.24 13.824C53.784 14.128 54.388 14.28 55.052 14.28C56.06 14.28 56.888 13.944 57.536 13.272L58.1 13.836C57.732 14.236 57.28 14.544 56.744 14.76C56.216 14.968 55.64 15.072 55.016 15.072ZM62.1118 15.06C61.5038 15.06 60.9558 14.924 60.4678 14.652C59.9798 14.372 59.5958 13.988 59.3158 13.5C59.0358 13.012 58.8958 12.46 58.8958 11.844C58.8958 11.228 59.0358 10.676 59.3158 10.188C59.5958 9.7 59.9798 9.32 60.4678 9.048C60.9558 8.776 61.5038 8.64 62.1118 8.64C62.7198 8.64 63.2678 8.776 63.7558 9.048C64.2438 9.32 64.6238 9.7 64.8958 10.188C65.1758 10.676 65.3158 11.228 65.3158 11.844C65.3158 12.46 65.1758 13.012 64.8958 13.5C64.6238 13.988 64.2438 14.372 63.7558 14.652C63.2678 14.924 62.7198 15.06 62.1118 15.06ZM62.1118 14.304C62.5598 14.304 62.9598 14.204 63.3118 14.004C63.6718 13.796 63.9518 13.504 64.1518 13.128C64.3518 12.752 64.4518 12.324 64.4518 11.844C64.4518 11.364 64.3518 10.936 64.1518 10.56C63.9518 10.184 63.6718 9.896 63.3118 9.696C62.9598 9.488 62.5598 9.384 62.1118 9.384C61.6638 9.384 61.2598 9.488 60.8998 9.696C60.5478 9.896 60.2678 10.184 60.0598 10.56C59.8598 10.936 59.7598 11.364 59.7598 11.844C59.7598 12.324 59.8598 12.752 60.0598 13.128C60.2678 13.504 60.5478 13.796 60.8998 14.004C61.2598 14.204 61.6638 14.304 62.1118 14.304ZM72.8152 6.096V15H71.9992V13.752C71.7432 14.176 71.4032 14.5 70.9792 14.724C70.5632 14.948 70.0912 15.06 69.5632 15.06C68.9712 15.06 68.4352 14.924 67.9552 14.652C67.4752 14.38 67.0992 14 66.8272 13.512C66.5552 13.024 66.4192 12.468 66.4192 11.844C66.4192 11.22 66.5552 10.664 66.8272 10.176C67.0992 9.688 67.4752 9.312 67.9552 9.048C68.4352 8.776 68.9712 8.64 69.5632 8.64C70.0752 8.64 70.5352 8.748 70.9432 8.964C71.3592 9.172 71.6992 9.48 71.9632 9.888V6.096H72.8152ZM69.6352 14.304C70.0752 14.304 70.4712 14.204 70.8232 14.004C71.1832 13.796 71.4632 13.504 71.6632 13.128C71.8712 12.752 71.9752 12.324 71.9752 11.844C71.9752 11.364 71.8712 10.936 71.6632 10.56C71.4632 10.184 71.1832 9.896 70.8232 9.696C70.4712 9.488 70.0752 9.384 69.6352 9.384C69.1872 9.384 68.7832 9.488 68.4232 9.696C68.0712 9.896 67.7912 10.184 67.5832 10.56C67.3832 10.936 67.2832 11.364 67.2832 11.844C67.2832 12.324 67.3832 12.752 67.5832 13.128C67.7912 13.504 68.0712 13.796 68.4232 14.004C68.7832 14.204 69.1872 14.304 69.6352 14.304ZM75.188 8.688H76.04V15H75.188V8.688ZM75.62 7.308C75.444 7.308 75.296 7.248 75.176 7.128C75.056 7.008 74.996 6.864 74.996 6.696C74.996 6.536 75.056 6.396 75.176 6.276C75.296 6.156 75.444 6.096 75.62 6.096C75.796 6.096 75.944 6.156 76.064 6.276C76.184 6.388 76.244 6.524 76.244 6.684C76.244 6.86 76.184 7.008 76.064 7.128C75.944 7.248 75.796 7.308 75.62 7.308ZM81.6267 8.64C82.4187 8.64 83.0467 8.872 83.5107 9.336C83.9827 9.792 84.2187 10.46 84.2187 11.34V15H83.3667V11.424C83.3667 10.768 83.2027 10.268 82.8747 9.924C82.5467 9.58 82.0787 9.408 81.4707 9.408C80.7907 9.408 80.2507 9.612 79.8507 10.02C79.4587 10.42 79.2627 10.976 79.2627 11.688V15H78.4107V8.688H79.2267V9.852C79.4587 9.468 79.7787 9.172 80.1867 8.964C80.6027 8.748 81.0827 8.64 81.6267 8.64ZM92.3992 8.688V14.232C92.3992 15.304 92.1352 16.096 91.6072 16.608C91.0872 17.128 90.2992 17.388 89.2432 17.388C88.6592 17.388 88.1032 17.3 87.5752 17.124C87.0552 16.956 86.6312 16.72 86.3032 16.416L86.7352 15.768C87.0392 16.04 87.4072 16.252 87.8392 16.404C88.2792 16.556 88.7392 16.632 89.2192 16.632C90.0192 16.632 90.6072 16.444 90.9832 16.068C91.3592 15.7 91.5472 15.124 91.5472 14.34V13.536C91.2832 13.936 90.9352 14.24 90.5032 14.448C90.0792 14.656 89.6072 14.76 89.0872 14.76C88.4952 14.76 87.9552 14.632 87.4672 14.376C86.9872 14.112 86.6072 13.748 86.3272 13.284C86.0552 12.812 85.9192 12.28 85.9192 11.688C85.9192 11.096 86.0552 10.568 86.3272 10.104C86.6072 9.64 86.9872 9.28 87.4672 9.024C87.9472 8.768 88.4872 8.64 89.0872 8.64C89.6232 8.64 90.1072 8.748 90.5392 8.964C90.9712 9.18 91.3192 9.492 91.5832 9.9V8.688H92.3992ZM89.1712 14.004C89.6272 14.004 90.0392 13.908 90.4072 13.716C90.7752 13.516 91.0592 13.24 91.2592 12.888C91.4672 12.536 91.5712 12.136 91.5712 11.688C91.5712 11.24 91.4672 10.844 91.2592 10.5C91.0592 10.148 90.7752 9.876 90.4072 9.684C90.0472 9.484 89.6352 9.384 89.1712 9.384C88.7152 9.384 88.3032 9.48 87.9352 9.672C87.5752 9.864 87.2912 10.136 87.0832 10.488C86.8832 10.84 86.7832 11.24 86.7832 11.688C86.7832 12.136 86.8832 12.536 87.0832 12.888C87.2912 13.24 87.5752 13.516 87.9352 13.716C88.3032 13.908 88.7152 14.004 89.1712 14.004Z" fill="black"/>
<path d="M66.532 23.62C66.564 23.652 66.58 23.768 66.58 23.968C66.58 24.16 66.576 24.332 66.568 24.484L66.016 31H65.116L65.836 22.72H67.144L68.824 28.144C68.888 28.352 68.928 28.58 68.944 28.828H69.016C69.024 28.612 69.064 28.384 69.136 28.144L70.828 22.72H72.124L72.796 31H71.896C71.552 26.52 71.38 24.204 71.38 24.052C71.38 23.892 71.396 23.748 71.428 23.62H71.356L69.436 29.788L68.536 29.896L66.604 23.62H66.532ZM78.3175 26.908V26.032C78.0855 25.912 77.7375 25.852 77.2735 25.852C76.0895 25.852 75.4975 26.744 75.4975 28.528C75.4975 29.832 75.8935 30.484 76.6855 30.484C77.0215 30.484 77.3015 30.372 77.5255 30.148C77.7575 29.916 77.9295 29.604 78.0415 29.212C78.2255 28.532 78.3175 27.764 78.3175 26.908ZM76.6015 31.144C75.9055 31.144 75.3975 30.904 75.0775 30.424C74.7575 29.944 74.5975 29.264 74.5975 28.384C74.5975 27.496 74.8215 26.748 75.2695 26.14C75.7255 25.524 76.3935 25.216 77.2735 25.216C77.5855 25.216 77.8935 25.248 78.1975 25.312C78.5095 25.376 78.8175 25.468 79.1215 25.588V28.636C79.1215 29.452 79.1935 29.968 79.3375 30.184C79.4735 30.4 79.7015 30.508 80.0215 30.508L80.0455 31.048C79.9175 31.08 79.7575 31.096 79.5655 31.096C79.1415 31.096 78.8375 30.948 78.6535 30.652C78.5175 30.436 78.4495 30.18 78.4495 29.884C78.4495 29.788 78.4575 29.684 78.4735 29.572H78.4015C78.2655 30.052 78.0455 30.436 77.7415 30.724C77.4455 31.004 77.0655 31.144 76.6015 31.144ZM84.7765 30.64C84.7765 30.264 84.8045 29.908 84.8605 29.572H84.7885C84.4845 30.62 83.8845 31.144 82.9885 31.144C82.3085 31.144 81.8045 30.9 81.4765 30.412C81.1485 29.916 80.9845 29.232 80.9845 28.36C80.9845 27.488 81.2085 26.748 81.6565 26.14C82.1125 25.524 82.7805 25.216 83.6605 25.216C83.9885 25.216 84.3125 25.252 84.6325 25.324C84.9605 25.388 85.2805 25.488 85.5925 25.624L85.6045 30.64C85.6045 31.656 85.4165 32.448 85.0405 33.016C84.6725 33.592 84.0485 33.88 83.1685 33.88C82.8485 33.88 82.5205 33.82 82.1845 33.7C81.8485 33.588 81.5805 33.428 81.3805 33.22L81.5125 32.752C81.9765 33.056 82.5165 33.208 83.1325 33.208C83.7565 33.208 84.1845 32.988 84.4165 32.548C84.6565 32.116 84.7765 31.48 84.7765 30.64ZM83.0725 30.484C84.2165 30.484 84.7885 29.012 84.7885 26.068C84.5325 25.924 84.1565 25.852 83.6605 25.852C82.4765 25.852 81.8845 26.744 81.8845 28.528C81.8845 29.08 81.9765 29.544 82.1605 29.92C82.3445 30.296 82.6485 30.484 83.0725 30.484ZM88.7755 31.096C88.4075 31.096 88.1515 31.008 88.0075 30.832C87.8635 30.656 87.7915 30.368 87.7915 29.968V25.36H88.6555V29.476C88.6555 29.9 88.6875 30.176 88.7515 30.304C88.8155 30.424 88.9995 30.484 89.3035 30.484L89.3275 31.012C89.1435 31.068 88.9595 31.096 88.7755 31.096ZM87.7075 23.476C87.7075 23.1 87.8915 22.912 88.2595 22.912C88.5955 22.912 88.7635 23.096 88.7635 23.464C88.7635 23.824 88.5875 24.004 88.2355 24.004C87.8835 24.004 87.7075 23.828 87.7075 23.476ZM92.7436 31.144C91.2476 31.144 90.4996 30.224 90.4996 28.384C90.4996 27.472 90.7196 26.716 91.1596 26.116C91.6076 25.516 92.2436 25.216 93.0676 25.216C93.5396 25.216 93.9596 25.296 94.3276 25.456L94.1956 26.08C93.8676 25.968 93.5236 25.912 93.1636 25.912C91.9876 25.912 91.3996 26.744 91.3996 28.408C91.3996 29.76 91.8956 30.436 92.8876 30.436C93.3916 30.436 93.8636 30.296 94.3036 30.016L94.4356 30.484C94.2356 30.684 93.9756 30.844 93.6556 30.964C93.3436 31.084 93.0396 31.144 92.7436 31.144Z" fill="black"/>
</svg>
